<svg xmlns="http://www.w3.org/2000/svg" width="968.469" height="1428.5" viewBox="0 0 968.469 1428.5">
  <g id="Group_76" data-name="Group 76" transform="translate(-23057.531 -6044)">
    <path id="Icon_awesome-html5" data-name="Icon awesome-html5" d="M0,2.25,13.117,151.005l58.856,19.619L131.2,151.005,144.32,2.25ZM115.832,50.319H46.754l1.541,18.566h66l-5.111,55.774L72.386,134.807v.113h-.413l-37.095-10.26L32.622,96.171H50.55l1.315,14.319,20.107,5.45,20.182-5.45L94.41,87.113H31.683L26.872,32.392h90.614l-1.654,17.927Z" transform="translate(23139.58 6344.094)" opacity="0.998"/>
    <path id="Icon_awesome-css3-alt" data-name="Icon awesome-css3-alt" d="M0,2.25,13.287,152.94,73.1,172.813,132.91,152.94,146.2,2.25ZM119.2,32.708l-1.827,18.008-43.9,18.77-.114.038h42.451l-4.873,55.814L73.555,136.264,35.94,125.147,33.5,97.012H52.121l1.218,14.582,20.026,5.064,20.825-5.863L95.6,87.341l-63.314-.19v-.038l-.076.038L30.838,69.524l42.679-17.78,2.475-1.028H29.2L26.993,32.708Z" transform="translate(23422.402 6427.187)" opacity="0.998"/>
    <path id="js" d="M0,32V192H160V32ZM87.071,156.786c0,15.571-9.143,22.679-22.464,22.679-12.036,0-19-6.214-22.571-13.75l12.25-7.393c2.357,4.179,4.5,7.714,9.679,7.714,4.929,0,8.071-1.929,8.071-9.464V105.464H87.071v51.321Zm35.571,22.679c-13.964,0-23-6.643-27.393-15.357l12.25-7.071c3.214,5.25,7.429,9.143,14.821,9.143,6.214,0,10.214-3.107,10.214-7.429,0-5.143-4.071-6.964-10.964-10l-3.75-1.607c-10.857-4.607-18.036-10.429-18.036-22.679,0-11.286,8.607-19.857,22-19.857,9.571,0,16.429,3.321,21.357,12.036l-11.714,7.5c-2.571-4.607-5.357-6.429-9.679-6.429-4.393,0-7.179,2.786-7.179,6.429,0,4.5,2.786,6.321,9.25,9.143l3.75,1.607c12.786,5.464,19.964,11.071,19.964,23.643,0,13.5-10.643,20.929-24.893,20.929Z" transform="translate(23706 6498)" opacity="0.998"/>
    <path id="js-2" data-name="js" d="M0,32V192H160V32ZM87.071,156.786c0,15.571-9.143,22.679-22.464,22.679-12.036,0-19-6.214-22.571-13.75l12.25-7.393c2.357,4.179,4.5,7.714,9.679,7.714,4.929,0,8.071-1.929,8.071-9.464V105.464H87.071v51.321Zm35.571,22.679c-13.964,0-23-6.643-27.393-15.357l12.25-7.071c3.214,5.25,7.429,9.143,14.821,9.143,6.214,0,10.214-3.107,10.214-7.429,0-5.143-4.071-6.964-10.964-10l-3.75-1.607c-10.857-4.607-18.036-10.429-18.036-22.679,0-11.286,8.607-19.857,22-19.857,9.571,0,16.429,3.321,21.357,12.036l-11.714,7.5c-2.571-4.607-5.357-6.429-9.679-6.429-4.393,0-7.179,2.786-7.179,6.429,0,4.5,2.786,6.321,9.25,9.143l3.75,1.607c12.786,5.464,19.964,11.071,19.964,23.643,0,13.5-10.643,20.929-24.893,20.929Z" transform="translate(23866 7061)" opacity="0.998"/>
    <path id="github" d="M54.887,136.832c0,.662-.761,1.191-1.72,1.191-1.092.1-1.853-.43-1.853-1.191,0-.662.761-1.191,1.72-1.191C54.027,135.541,54.887,136.071,54.887,136.832ZM44.6,135.343c-.232.662.43,1.423,1.423,1.621a1.552,1.552,0,0,0,2.051-.662c.2-.662-.43-1.423-1.423-1.72a1.7,1.7,0,0,0-2.051.761Zm14.623-.562c-.959.232-1.621.86-1.522,1.621.1.662.959,1.092,1.952.86.959-.232,1.621-.86,1.522-1.522C61.074,135.111,60.181,134.681,59.222,134.78ZM80.991,8C35.1,8,0,42.838,0,88.727c0,36.691,23.093,68.088,56.079,79.139,4.235.761,5.724-1.853,5.724-4,0-2.051-.1-13.366-.1-20.314,0,0-23.159,4.963-28.023-9.859,0,0-3.772-9.628-9.2-12.109,0,0-7.576-5.194.529-5.1a17.464,17.464,0,0,1,12.771,8.536c7.246,12.771,19.388,9.1,24.119,6.915.761-5.294,2.911-8.966,5.294-11.15-18.494-2.051-37.154-4.731-37.154-36.559,0-9.1,2.514-13.664,7.808-19.487-.86-2.151-3.672-11.017.86-22.464,6.915-2.151,22.828,8.933,22.828,8.933a78.16,78.16,0,0,1,41.554,0s15.914-11.116,22.828-8.933c4.533,11.48,1.72,20.314.86,22.464,5.294,5.856,8.536,10.422,8.536,19.487,0,31.927-19.487,34.474-37.981,36.559,3.044,2.614,5.624,7.576,5.624,15.351,0,11.15-.1,24.946-.1,27.659,0,2.151,1.522,4.764,5.724,4,33.085-10.984,55.516-42.381,55.516-79.072C164.1,42.838,126.88,8,80.991,8ZM32.158,122.109c-.43.331-.331,1.092.232,1.72.529.529,1.29.761,1.72.331.43-.331.331-1.092-.232-1.72C33.349,121.911,32.588,121.679,32.158,122.109Zm-3.573-2.68c-.232.43.1.959.761,1.29a.984.984,0,0,0,1.423-.232c.232-.43-.1-.959-.761-1.29C29.346,119,28.817,119.1,28.585,119.429ZM39.3,131.207c-.529.43-.331,1.423.43,2.051.761.761,1.72.86,2.151.331.43-.43.232-1.423-.43-2.051C40.727,130.777,39.735,130.678,39.3,131.207Zm-3.772-4.863c-.529.331-.529,1.191,0,1.952s1.423,1.092,1.853.761a1.509,1.509,0,0,0,0-2.051c-.463-.761-1.323-1.092-1.853-.662Z" transform="translate(23211.74 6625)" opacity="0.998"/>
    <path id="github-2" data-name="github" d="M54.887,136.832c0,.662-.761,1.191-1.72,1.191-1.092.1-1.853-.43-1.853-1.191,0-.662.761-1.191,1.72-1.191C54.027,135.541,54.887,136.071,54.887,136.832ZM44.6,135.343c-.232.662.43,1.423,1.423,1.621a1.552,1.552,0,0,0,2.051-.662c.2-.662-.43-1.423-1.423-1.72a1.7,1.7,0,0,0-2.051.761Zm14.623-.562c-.959.232-1.621.86-1.522,1.621.1.662.959,1.092,1.952.86.959-.232,1.621-.86,1.522-1.522C61.074,135.111,60.181,134.681,59.222,134.78ZM80.991,8C35.1,8,0,42.838,0,88.727c0,36.691,23.093,68.088,56.079,79.139,4.235.761,5.724-1.853,5.724-4,0-2.051-.1-13.366-.1-20.314,0,0-23.159,4.963-28.023-9.859,0,0-3.772-9.628-9.2-12.109,0,0-7.576-5.194.529-5.1a17.464,17.464,0,0,1,12.771,8.536c7.246,12.771,19.388,9.1,24.119,6.915.761-5.294,2.911-8.966,5.294-11.15-18.494-2.051-37.154-4.731-37.154-36.559,0-9.1,2.514-13.664,7.808-19.487-.86-2.151-3.672-11.017.86-22.464,6.915-2.151,22.828,8.933,22.828,8.933a78.16,78.16,0,0,1,41.554,0s15.914-11.116,22.828-8.933c4.533,11.48,1.72,20.314.86,22.464,5.294,5.856,8.536,10.422,8.536,19.487,0,31.927-19.487,34.474-37.981,36.559,3.044,2.614,5.624,7.576,5.624,15.351,0,11.15-.1,24.946-.1,27.659,0,2.151,1.522,4.764,5.724,4,33.085-10.984,55.516-42.381,55.516-79.072C164.1,42.838,126.88,8,80.991,8ZM32.158,122.109c-.43.331-.331,1.092.232,1.72.529.529,1.29.761,1.72.331.43-.331.331-1.092-.232-1.72C33.349,121.911,32.588,121.679,32.158,122.109Zm-3.573-2.68c-.232.43.1.959.761,1.29a.984.984,0,0,0,1.423-.232c.232-.43-.1-.959-.761-1.29C29.346,119,28.817,119.1,28.585,119.429ZM39.3,131.207c-.529.43-.331,1.423.43,2.051.761.761,1.72.86,2.151.331.43-.43.232-1.423-.43-2.051C40.727,130.777,39.735,130.678,39.3,131.207Zm-3.772-4.863c-.529.331-.529,1.191,0,1.952s1.423,1.092,1.853.761a1.509,1.509,0,0,0,0-2.051c-.463-.761-1.323-1.092-1.853-.662Z" transform="translate(23057.531 6036)" opacity="0.998"/>
    <path id="wordpress-simple" d="M88,8a80,80,0,1,0,80,80A80.09,80.09,0,0,0,88,8ZM16.065,88A71.433,71.433,0,0,1,22.29,58.742l34.323,94A71.989,71.989,0,0,1,16.065,88ZM88,159.935A71.653,71.653,0,0,1,67.677,157L89.258,94.29l22.1,60.581a9.719,9.719,0,0,0,.516,1A72.014,72.014,0,0,1,88,159.935ZM97.9,54.29c4.323-.226,8.226-.677,8.226-.677,3.871-.452,3.419-6.161-.452-5.935,0,0-11.645.9-19.161.9-7.065,0-18.935-.9-18.935-.9-3.871-.226-4.323,5.71-.452,5.935,0,0,3.677.452,7.548.677L85.871,85,70.129,132.194,43.935,54.29c4.323-.226,8.226-.677,8.226-.677,3.871-.452,3.419-6.161-.452-5.935,0,0-11.645.9-19.161.9-1.355,0-2.935-.032-4.645-.1A71.935,71.935,0,0,1,136.581,34.935a9.114,9.114,0,0,0-.935-.065c-7.065,0-12.065,6.161-12.065,12.774,0,5.935,3.419,10.935,7.065,16.871,2.742,4.774,5.935,10.935,5.935,19.839,0,6.161-2.355,13.29-5.484,23.258l-7.161,23.968L97.9,54.29Zm26.258,95.871,21.968-63.516c4.1-10.258,5.484-18.452,5.484-25.774a52.941,52.941,0,0,0-.484-7.387,71.939,71.939,0,0,1-26.968,96.677Z" transform="translate(23511 6732)" stroke="rgba(0,0,0,0)" stroke-miterlimit="10" stroke-width="1" opacity="0.998"/>
    <path id="wordpress-simple-2" data-name="wordpress-simple" d="M88,8a80,80,0,1,0,80,80A80.09,80.09,0,0,0,88,8ZM16.065,88A71.433,71.433,0,0,1,22.29,58.742l34.323,94A71.989,71.989,0,0,1,16.065,88ZM88,159.935A71.653,71.653,0,0,1,67.677,157L89.258,94.29l22.1,60.581a9.719,9.719,0,0,0,.516,1A72.014,72.014,0,0,1,88,159.935ZM97.9,54.29c4.323-.226,8.226-.677,8.226-.677,3.871-.452,3.419-6.161-.452-5.935,0,0-11.645.9-19.161.9-7.065,0-18.935-.9-18.935-.9-3.871-.226-4.323,5.71-.452,5.935,0,0,3.677.452,7.548.677L85.871,85,70.129,132.194,43.935,54.29c4.323-.226,8.226-.677,8.226-.677,3.871-.452,3.419-6.161-.452-5.935,0,0-11.645.9-19.161.9-1.355,0-2.935-.032-4.645-.1A71.935,71.935,0,0,1,136.581,34.935a9.114,9.114,0,0,0-.935-.065c-7.065,0-12.065,6.161-12.065,12.774,0,5.935,3.419,10.935,7.065,16.871,2.742,4.774,5.935,10.935,5.935,19.839,0,6.161-2.355,13.29-5.484,23.258l-7.161,23.968L97.9,54.29Zm26.258,95.871,21.968-63.516c4.1-10.258,5.484-18.452,5.484-25.774a52.941,52.941,0,0,0-.484-7.387,71.939,71.939,0,0,1-26.968,96.677Z" transform="translate(23671 7304)" stroke="rgba(0,0,0,0)" stroke-miterlimit="10" stroke-width="1" opacity="0.998"/>
    <path id="wordpress-simple-3" data-name="wordpress-simple" d="M88,8a80,80,0,1,0,80,80A80.09,80.09,0,0,0,88,8ZM16.065,88A71.433,71.433,0,0,1,22.29,58.742l34.323,94A71.989,71.989,0,0,1,16.065,88ZM88,159.935A71.653,71.653,0,0,1,67.677,157L89.258,94.29l22.1,60.581a9.719,9.719,0,0,0,.516,1A72.014,72.014,0,0,1,88,159.935ZM97.9,54.29c4.323-.226,8.226-.677,8.226-.677,3.871-.452,3.419-6.161-.452-5.935,0,0-11.645.9-19.161.9-7.065,0-18.935-.9-18.935-.9-3.871-.226-4.323,5.71-.452,5.935,0,0,3.677.452,7.548.677L85.871,85,70.129,132.194,43.935,54.29c4.323-.226,8.226-.677,8.226-.677,3.871-.452,3.419-6.161-.452-5.935,0,0-11.645.9-19.161.9-1.355,0-2.935-.032-4.645-.1A71.935,71.935,0,0,1,136.581,34.935a9.114,9.114,0,0,0-.935-.065c-7.065,0-12.065,6.161-12.065,12.774,0,5.935,3.419,10.935,7.065,16.871,2.742,4.774,5.935,10.935,5.935,19.839,0,6.161-2.355,13.29-5.484,23.258l-7.161,23.968L97.9,54.29Zm26.258,95.871,21.968-63.516c4.1-10.258,5.484-18.452,5.484-25.774a52.941,52.941,0,0,0-.484-7.387,71.939,71.939,0,0,1-26.968,96.677Z" transform="translate(23351 6143)" stroke="rgba(0,0,0,0)" stroke-miterlimit="10" stroke-width="1" opacity="0.998"/>
    <path id="Icon_awesome-html5-2" data-name="Icon awesome-html5" d="M0,2.25,13.117,151.005l58.856,19.619L131.2,151.005,144.32,2.25ZM115.832,50.319H46.754l1.541,18.566h66l-5.111,55.774L72.386,134.807v.113h-.413l-37.095-10.26L32.622,96.171H50.55l1.315,14.319,20.107,5.45,20.182-5.45L94.41,87.113H31.683L26.872,32.392h90.614l-1.654,17.927Z" transform="translate(23322.58 6943.422)" opacity="0.998"/>
    <path id="Icon_awesome-css3-alt-2" data-name="Icon awesome-css3-alt" d="M0,2.25,13.287,152.94,73.1,172.813,132.91,152.94,146.2,2.25ZM119.2,32.708l-1.827,18.008-43.9,18.77-.114.038h42.451l-4.873,55.814L73.555,136.264,35.94,125.147,33.5,97.012H52.121l1.218,14.582,20.026,5.064,20.825-5.863L95.6,87.341l-63.314-.19v-.038l-.076.038L30.838,69.524l42.679-17.78,2.475-1.028H29.2L26.993,32.708Z" transform="translate(23605.402 7026.515)" opacity="0.998"/>
    <path id="github-3" data-name="github" d="M54.887,136.832c0,.662-.761,1.191-1.72,1.191-1.092.1-1.853-.43-1.853-1.191,0-.662.761-1.191,1.72-1.191C54.027,135.541,54.887,136.071,54.887,136.832ZM44.6,135.343c-.232.662.43,1.423,1.423,1.621a1.552,1.552,0,0,0,2.051-.662c.2-.662-.43-1.423-1.423-1.72a1.7,1.7,0,0,0-2.051.761Zm14.623-.562c-.959.232-1.621.86-1.522,1.621.1.662.959,1.092,1.952.86.959-.232,1.621-.86,1.522-1.522C61.074,135.111,60.181,134.681,59.222,134.78ZM80.991,8C35.1,8,0,42.838,0,88.727c0,36.691,23.093,68.088,56.079,79.139,4.235.761,5.724-1.853,5.724-4,0-2.051-.1-13.366-.1-20.314,0,0-23.159,4.963-28.023-9.859,0,0-3.772-9.628-9.2-12.109,0,0-7.576-5.194.529-5.1a17.464,17.464,0,0,1,12.771,8.536c7.246,12.771,19.388,9.1,24.119,6.915.761-5.294,2.911-8.966,5.294-11.15-18.494-2.051-37.154-4.731-37.154-36.559,0-9.1,2.514-13.664,7.808-19.487-.86-2.151-3.672-11.017.86-22.464,6.915-2.151,22.828,8.933,22.828,8.933a78.16,78.16,0,0,1,41.554,0s15.914-11.116,22.828-8.933c4.533,11.48,1.72,20.314.86,22.464,5.294,5.856,8.536,10.422,8.536,19.487,0,31.927-19.487,34.474-37.981,36.559,3.044,2.614,5.624,7.576,5.624,15.351,0,11.15-.1,24.946-.1,27.659,0,2.151,1.522,4.764,5.724,4,33.085-10.984,55.516-42.381,55.516-79.072C164.1,42.838,126.88,8,80.991,8ZM32.158,122.109c-.43.331-.331,1.092.232,1.72.529.529,1.29.761,1.72.331.43-.331.331-1.092-.232-1.72C33.349,121.911,32.588,121.679,32.158,122.109Zm-3.573-2.68c-.232.43.1.959.761,1.29a.984.984,0,0,0,1.423-.232c.232-.43-.1-.959-.761-1.29C29.346,119,28.817,119.1,28.585,119.429ZM39.3,131.207c-.529.43-.331,1.423.43,2.051.761.761,1.72.86,2.151.331.43-.43.232-1.423-.43-2.051C40.727,130.777,39.735,130.678,39.3,131.207Zm-3.772-4.863c-.529.331-.529,1.191,0,1.952s1.423,1.092,1.853.761a1.509,1.509,0,0,0,0-2.051c-.463-.761-1.323-1.092-1.853-.662Z" transform="translate(23394.74 7224.328)" opacity="0.998"/>
    <path id="Icon_simple-adobexd" data-name="Icon simple-adobexd" d="M135.043.45H29.06A29.035,29.035,0,0,0,0,29.51V131.39a29.035,29.035,0,0,0,29.06,29.06H135.043a29.035,29.035,0,0,0,29.06-29.06V29.51A29.035,29.035,0,0,0,135.043.45ZM157.2,128.724a24.773,24.773,0,0,1-24.752,24.889H31.658A24.863,24.863,0,0,1,6.838,128.792V32.108A24.863,24.863,0,0,1,31.658,7.288H132.376A24.821,24.821,0,0,1,157.2,32.108Zm-92.308-53.4,19.145,36.786c.342.547.137,1.094-.41,1.094h-11.9a1.342,1.342,0,0,1-1.436-.889c-4.376-9.026-8.821-18.051-13.4-27.761h-.137c-4.1,9.162-8.615,18.8-12.991,27.829a1.313,1.313,0,0,1-1.231.752H31.248c-.684,0-.752-.547-.41-.957L49.573,76.484l-18.12-36.1a.553.553,0,0,1,.41-.957H43.624a1.077,1.077,0,0,1,1.231.752C49.162,49.2,53.538,58.5,57.641,67.6h.137C61.744,58.57,66.12,49.2,70.359,40.245c.342-.547.547-.889,1.231-.889H82.6c.547,0,.752.41.41.957Zm22.5,11.145c0-15.932,10.6-28.376,27.419-28.376a30.322,30.322,0,0,1,3.556.137V40.108a.685.685,0,0,1,.684-.684h10.8c.547,0,.684.205.684.547v62.769a48.7,48.7,0,0,0,.342,6.7c0,.41-.137.547-.547.752a40.729,40.729,0,0,1-17.5,3.966C97.983,114.228,87.385,105.065,87.385,86.467Zm30.974-17.5a10.341,10.341,0,0,0-3.966-.684c-8.615,0-14.632,6.632-14.632,17.641,0,12.581,6.154,17.641,13.88,17.641a12.9,12.9,0,0,0,4.718-.752V68.963Z" transform="translate(23623.949 6239.55)" stroke="rgba(0,0,0,0)" stroke-miterlimit="10" stroke-width="1" opacity="0.998"/>
    <path id="Icon_simple-adobexd-2" data-name="Icon simple-adobexd" d="M135.043.45H29.06A29.035,29.035,0,0,0,0,29.51V131.39a29.035,29.035,0,0,0,29.06,29.06H135.043a29.035,29.035,0,0,0,29.06-29.06V29.51A29.035,29.035,0,0,0,135.043.45ZM157.2,128.724a24.773,24.773,0,0,1-24.752,24.889H31.658A24.863,24.863,0,0,1,6.838,128.792V32.108A24.863,24.863,0,0,1,31.658,7.288H132.376A24.821,24.821,0,0,1,157.2,32.108Zm-92.308-53.4,19.145,36.786c.342.547.137,1.094-.41,1.094h-11.9a1.342,1.342,0,0,1-1.436-.889c-4.376-9.026-8.821-18.051-13.4-27.761h-.137c-4.1,9.162-8.615,18.8-12.991,27.829a1.313,1.313,0,0,1-1.231.752H31.248c-.684,0-.752-.547-.41-.957L49.573,76.484l-18.12-36.1a.553.553,0,0,1,.41-.957H43.624a1.077,1.077,0,0,1,1.231.752C49.162,49.2,53.538,58.5,57.641,67.6h.137C61.744,58.57,66.12,49.2,70.359,40.245c.342-.547.547-.889,1.231-.889H82.6c.547,0,.752.41.41.957Zm22.5,11.145c0-15.932,10.6-28.376,27.419-28.376a30.322,30.322,0,0,1,3.556.137V40.108a.685.685,0,0,1,.684-.684h10.8c.547,0,.684.205.684.547v62.769a48.7,48.7,0,0,0,.342,6.7c0,.41-.137.547-.547.752a40.729,40.729,0,0,1-17.5,3.966C97.983,114.228,87.385,105.065,87.385,86.467Zm30.974-17.5a10.341,10.341,0,0,0-3.966-.684c-8.615,0-14.632,6.632-14.632,17.641,0,12.581,6.154,17.641,13.88,17.641a12.9,12.9,0,0,0,4.718-.752V68.963Z" transform="translate(23795.578 6834.55)" stroke="rgba(0,0,0,0)" stroke-miterlimit="10" stroke-width="1" opacity="0.998"/>
  </g>
</svg>
