<?xml version="1.0" encoding="UTF-8"?><svg id="Component_12_1" xmlns="http://www.w3.org/2000/svg" viewBox="0 0 160 160"><defs><style>.cls-1{fill:#222743;}</style></defs><path id="js" class="cls-1" d="M0,0V160H160V0H0ZM87.07,124.79c0,15.57-9.14,22.68-22.46,22.68-12.04,0-19-6.21-22.57-13.75l12.25-7.39c2.36,4.18,4.5,7.71,9.68,7.71s8.07-1.93,8.07-9.46v-51.11h15.04v51.32h0Zm35.57,22.68c-13.96,0-23-6.64-27.39-15.36l12.25-7.07c3.21,5.25,7.43,9.14,14.82,9.14,6.21,0,10.21-3.11,10.21-7.43,0-5.14-4.07-6.96-10.96-10l-3.75-1.61c-10.86-4.61-18.04-10.43-18.04-22.68,0-11.29,8.61-19.86,22-19.86,9.57,0,16.43,3.32,21.36,12.04l-11.71,7.5c-2.57-4.61-5.36-6.43-9.68-6.43s-7.18,2.79-7.18,6.43c0,4.5,2.79,6.32,9.25,9.14l3.75,1.61c12.79,5.46,19.96,11.07,19.96,23.64,0,13.5-10.64,20.93-24.89,20.93h0Z"/></svg>