<?xml version="1.0" encoding="UTF-8"?><svg id="Layer_1" xmlns="http://www.w3.org/2000/svg" viewBox="0 0 90 54">
<defs>
<style>
.cls-1{fill:#fff;}

</style>
</defs><path id="Rectangle_49" class="cls-1" d="M5,0H85c2.76,0,5,2.24,5,5h0c0,2.76-2.24,5-5,5H5C2.24,10,0,7.76,0,5H0C0,2.24,2.24,0,5,0Z"/><path id="Rectangle_65" class="cls-1" d="M35,22h50c2.76,0,5,2.24,5,5h0c0,2.76-2.24,5-5,5H35c-2.76,0-5-2.24-5-5h0c0-2.76,2.24-5,5-5Z"/><path id="Rectangle_66" class="cls-1" d="M65,44h20c2.76,0,5,2.24,5,5h0c0,2.76-2.24,5-5,5h-20c-2.76,0-5-2.24-5-5h0c0-2.76,2.24-5,5-5Z"/></svg>