<?xml version="1.0" encoding="UTF-8"?><svg id="Layer_1" xmlns="http://www.w3.org/2000/svg" viewBox="0 0 164.1 160"><defs><style>.cls-1{fill:#fff;}</style></defs><g id="Component_14_1"><path id="github" class="cls-1" d="M54.89,128.83c0,.66-.76,1.19-1.72,1.19-1.09,.1-1.85-.43-1.85-1.19,0-.66,.76-1.19,1.72-1.19,.99-.1,1.85,.43,1.85,1.19Zm-10.29-1.49c-.23,.66,.43,1.42,1.42,1.62,.75,.37,1.66,.07,2.05-.66,.2-.66-.43-1.42-1.42-1.72-.78-.28-1.64,.04-2.05,.76Zm14.62-.56c-.96,.23-1.62,.86-1.52,1.62,.1,.66,.96,1.09,1.95,.86,.96-.23,1.62-.86,1.52-1.52-.1-.63-.99-1.06-1.95-.96h0ZM80.99,0C35.1,0,0,34.84,0,80.73c0,36.69,23.09,68.09,56.08,79.14,4.24,.76,5.72-1.85,5.72-4s-.1-13.37-.1-20.31c0,0-23.16,4.96-28.02-9.86,0,0-3.77-9.63-9.2-12.11,0,0-7.58-5.19,.53-5.1,5.35,.72,10.06,3.87,12.77,8.54,7.25,12.77,19.39,9.1,24.12,6.92,.76-5.29,2.91-8.97,5.29-11.15-18.49-2.05-37.15-4.73-37.15-36.56,0-9.1,2.51-13.66,7.81-19.49-.86-2.15-3.67-11.02,.86-22.46,6.92-2.15,22.83,8.93,22.83,8.93,13.6-3.75,27.96-3.75,41.55,0,0,0,15.91-11.12,22.83-8.93,4.53,11.48,1.72,20.31,.86,22.46,5.29,5.86,8.54,10.42,8.54,19.49,0,31.93-19.49,34.47-37.98,36.56,3.04,2.61,5.62,7.58,5.62,15.35,0,11.15-.1,24.95-.1,27.66,0,2.15,1.52,4.76,5.72,4,33.09-10.98,55.52-42.38,55.52-79.07,0-45.89-37.22-80.72-83.11-80.72ZM32.16,114.11c-.43,.33-.33,1.09,.23,1.72,.53,.53,1.29,.76,1.72,.33,.43-.33,.33-1.09-.23-1.72-.53-.53-1.29-.76-1.72-.33Zm-3.57-2.68c-.23,.43,.1,.96,.76,1.29,.43,.33,1.05,.26,1.38-.17,.01-.02,.03-.04,.04-.06,.23-.43-.1-.96-.76-1.29-.66-.2-1.19-.1-1.42,.23Zm10.71,11.78c-.53,.43-.33,1.42,.43,2.05,.76,.76,1.72,.86,2.15,.33,.43-.43,.23-1.42-.43-2.05-.72-.76-1.72-.86-2.15-.33Zm-3.77-4.86c-.53,.33-.53,1.19,0,1.95s1.42,1.09,1.85,.76c.54-.58,.54-1.47,0-2.05-.46-.76-1.32-1.09-1.85-.66Z"/></g></svg>