<?xml version="1.0" encoding="UTF-8"?><svg id="Layer_1" xmlns="http://www.w3.org/2000/svg" viewBox="0 0 160 160"><defs><style>.cls-1{fill:#222743;}</style></defs><g id="Component_13_1"><path id="wordpress-simple" class="cls-1" d="M80,0C35.82,0,0,35.82,0,80s35.82,80,80,80,80-35.82,80-80C159.95,35.84,124.16,.05,80,0ZM8.07,80c-.01-10.08,2.11-20.05,6.23-29.26l34.32,94c-24.8-12.04-40.54-37.18-40.55-64.74Zm71.93,71.93c-6.88,0-13.72-.99-20.32-2.93l21.58-62.71,22.1,60.58c.15,.34,.32,.68,.52,1-7.67,2.69-15.74,4.07-23.87,4.06Zm9.9-105.64c4.32-.23,8.23-.68,8.23-.68,3.87-.45,3.42-6.16-.45-5.94,0,0-11.65,.9-19.16,.9-7.07,0-18.93-.9-18.93-.9-3.87-.23-4.32,5.71-.45,5.94,0,0,3.68,.45,7.55,.68l11.2,30.71-15.74,47.19L35.94,46.29c4.32-.23,8.23-.68,8.23-.68,3.87-.45,3.42-6.16-.45-5.94,0,0-11.65,.9-19.16,.9-1.35,0-2.93-.03-4.65-.1C41.73,7.28,86.33-1.94,119.53,19.89c3.2,2.1,6.23,4.46,9.05,7.05-.31-.04-.62-.06-.93-.06-7.07,0-12.07,6.16-12.07,12.77,0,5.94,3.42,10.94,7.07,16.87,2.74,4.77,5.93,10.93,5.93,19.84,0,6.16-2.35,13.29-5.48,23.26l-7.16,23.97-26.04-77.29Zm26.26,95.87l21.97-63.52c4.1-10.26,5.48-18.45,5.48-25.77,.01-2.47-.15-4.94-.48-7.39,18.69,34.21,6.73,77.08-26.97,96.68Z"/></g></svg>